 http://www.shotpix.com/images/19271225989075942189.jpg


Release Title: Flo Rida - Let It Roll (2012)

                               1080p Full HD MP4 Video
                                         +
                               128 Kbps/VBR M4A Audio

General
Format                         : MPEG-4
Format profile                 : Base Media / Version 2
Codec ID                       : mp42
File size                      : 42.8 MiB
Duration                       : 3mn 16s
Overall bit rate mode          : Variable
Overall bit rate               : 1 829 Kbps

Video
ID                             : 1
Format                         : AVC
Format/Info                    : Advanced Video Codec
Width                          : 1 920 pixels
Height                         : 1 080 pixels
Display aspect ratio           : 16:9
Frame rate mode                : Variable
Frame rate                     : 23.976 fps
Minimum frame rate             : 23.974 fps
Maximum frame rate             : 23.981 fps
Color space                    : YUV
Chroma subsampling             : 4:2:0
Bit depth                      : 8 bits
Scan type                      : Progressive
Bits/(Pixel*Frame)             : 0.034
Stream size                    : 39.8 MiB (93%)
Writing library                : x264 core 128

Audio
ID                             : 2
Format                         : AAC
Format/Info                    : Advanced Audio Codec
Codec ID                       : 40
Duration                       : 3mn 16s
Bit rate mode                  : Variable
Bit rate                       : 125 Kbps
Channel(s)                     : 2 channels
Channel positions              : Front: L R
Sampling rate                  : 48.0 KHz
Stream size                    : 2.93 MiB (7%)

Subtitles                      : No

Screens:
 
http://www.shotpix.com/images/40009569752556417880.jpg 
http://www.shotpix.com/images/58304123662645832054.jpg

Thumbs:
 
http://www.shotpix.com/images/21653006829861913979.jpg

------------------------------------------------------------------------

Notes:

* Recommended to use latest version VLC Media Player.
* Install shark007 codecs in case of any kind of problem in playback (For non-VLC Media Player users).
* Alternatively, install Core AVC codecs, the fastest decoder that there is coupled with Community Center Codec Pack and play on Windows Media Player Classic.

Greets to: VYTO, a2zRG, Sheychi, Chew,staff members at ExtraTorrent, TPB,KAT, 1337x, PublicHD, Ahashare, TorrentMafia, BTScene, P2PDL, and all others

Encoder Notes: Looking For Early Access To Anything You Can Provide DVDScr, R5, DVDRips, BluRay, Direct Audio, Early Music
Releases, Seedboxes, Links, Dedicated Servers anything u can provide, Advance / Promo CDs/DVDs. If You Got anything to
offer contact me at "prg@hush.com"